<?xml version="1.0" encoding="utf-8"?>
<!-- Generator: Fusion 360, Shaper Origin Export Add-In, Version 1.5.0  -->
<svg enable-background="new 0 0 5.3 5.3" height="5.3cm" shaper:fusionaddin="version:1.5.0" version="1.1" viewBox="0 0 5.3 5.3" width="5.3cm" x="0cm" xml:space="preserve" xmlns="http://www.w3.org/2000/svg" xmlns:shaper="http://www.shapertools.com/namespaces/shaper" xmlns:xlink="http://www.w3.org/1999/xlink" y="0cm"><path d="M0,-0.15 L0,0 -0.8,0 -0.8,-0.15 -1.6,-0.15 -1.6,0 -2.4,0 -2.4,-0.15 -3.05,-0.15 -3.05,0.5 -2.9,0.5 -2.9,1.3 -3.05,1.3 -3.05,2.1 -2.9,2.1 -2.9,2.9 -3.05,2.9 -3.05,3.7 -2.9,3.7 -2.9,4.5 -3.05,4.5 -3.05,5.15 -2.4,5.15 -2.4,5 -1.6,5 -1.6,5.15 -0.8,5.15 -0.8,5 -0,5 -0,5.15 0.8,5.15 0.8,5 1.6,5 1.6,5.15 2.25,5.15 2.25,4.5 2.1,4.5 2.1,3.7 2.25,3.7 2.25,2.9 2.1,2.9 2.1,2.1 2.25,2.1 2.25,1.3 2.1,1.3 2.1,0.5 2.25,0.5 2.25,-0.15 1.6,-0.15 1.6,0 0.8,0 0.8,-0.15 0,-0.15z" fill="rgb(0,0,0)" shaper:cutDepth="0.0015" shaper:pathType="exterior" transform="matrix(1,0,0,-1,3.05,5.15)" vector-effect="non-scaling-stroke" /></svg>