<?xml version="1.0" encoding="utf-8"?>
<!-- Generator: Fusion 360, Shaper Origin Export Add-In, Version 1.5.0  -->
<svg enable-background="new 0 0 5.3 3.65" height="3.65cm" shaper:fusionaddin="version:1.5.0" version="1.1" viewBox="0 0 5.3 3.65" width="5.3cm" x="0cm" xml:space="preserve" xmlns="http://www.w3.org/2000/svg" xmlns:shaper="http://www.shapertools.com/namespaces/shaper" xmlns:xlink="http://www.w3.org/1999/xlink" y="0cm"><path d="M5,3.5 L4.5,3.5 4.5,3.65 3.7,3.65 3.7,3.5 2.9,3.5 2.9,3.65 2.1,3.65 2.1,3.5 1.3,3.5 1.3,3.65 0.5,3.65 0.5,3.5 -0.15,3.5 -0.15,2.625 0,2.625 0,1.75 -0.15,1.75 -0.15,0.875 0,0.875 0,0 5.15,0 5.15,0.875 5,0.875 5,1.75 5.15,1.75 5.15,2.625 5,2.625 5,3.5z" fill="rgb(0,0,0)" shaper:cutDepth="0.0015" shaper:pathType="exterior" transform="matrix(1,0,0,-1,0.15,3.65)" vector-effect="non-scaling-stroke" /><path d="M2.9,2.7 A0.05,0.05 270 0,1 2.95,2.75 L2.95,3.05 A0.05,0.05 0 0,1 2.9,3.1 L2.1,3.1 A0.05,0.05 90 0,1 2.05,3.05 L2.05,2.75 A0.05,0.05 180 0,1 2.1,2.7 L2.9,2.7z" fill="rgb(255,255,255)" shaper:cutDepth="0.0015" shaper:pathType="interior" stroke="rgb(0,0,0)" transform="matrix(1,0,0,-1,0.15,3.65)" vector-effect="non-scaling-stroke" /><path d="M4.075,2.9 a0.075,0.075 0 1,1 0.15,0 a0.075,0.075 0 1,1 -0.15,0z" fill="rgb(255,255,255)" shaper:cutDepth="0.0015" shaper:pathType="interior" stroke="rgb(0,0,0)" transform="matrix(1,0,0,-1,0.15,3.65)" vector-effect="non-scaling-stroke" /></svg>