<?xml version="1.0" encoding="utf-8"?>
<!-- Generator: Fusion 360, Shaper Origin Export Add-In, Version 1.5.0  -->
<svg enable-background="new 0 0 5.3 3.65" height="3.65cm" shaper:fusionaddin="version:1.5.0" version="1.1" viewBox="0 0 5.3 3.65" width="5.3cm" x="0cm" xml:space="preserve" xmlns="http://www.w3.org/2000/svg" xmlns:shaper="http://www.shapertools.com/namespaces/shaper" xmlns:xlink="http://www.w3.org/1999/xlink" y="0cm"><path d="M5.3,3.5 L4.65,3.5 4.65,3.65 3.85,3.65 3.85,3.5 3.05,3.5 3.05,3.65 2.25,3.65 2.25,3.5 1.45,3.5 1.45,3.65 0.65,3.65 0.65,3.5 0.15,3.5 0.15,2.625 0,2.625 0,1.75 0.15,1.75 0.15,0.875 0,0.875 0,0 5.15,0 5.15,0.875 5.3,0.875 5.3,1.75 5.15,1.75 5.15,2.625 5.3,2.625 5.3,3.5z" fill="rgb(0,0,0)" shaper:cutDepth="0.0015" shaper:pathType="exterior" transform="matrix(1,0,0,-1,-0,3.65)" vector-effect="non-scaling-stroke" /></svg>